<svg xmlns="http://www.w3.org/2000/svg" version="1.1" xmlns:xlink="http://www.w3.org/1999/xlink" xmlns:svgjs="http://svgjs.dev/svgjs" width="1000" height="340" viewBox="0 0 1000 340"><g transform="matrix(1,0,0,1,-0.6060606060606233,0.31690759063687324)"><svg viewBox="0 0 396 135" data-background-color="#ffffff" preserveAspectRatio="xMidYMid meet" height="340" width="1000" xmlns="http://www.w3.org/2000/svg" xmlns:xlink="http://www.w3.org/1999/xlink"><g id="tight-bounds" transform="matrix(1,0,0,1,0.2400000000000091,-0.12583095510581188)"><svg viewBox="0 0 395.52 135.25166191021162" height="135.25166191021162" width="395.52"><g><svg viewBox="0 0 395.52 135.25166191021162" height="135.25166191021162" width="395.52"><g><svg viewBox="0 0 395.52 135.25166191021162" height="135.25166191021162" width="395.52"><g id="textblocktransform"><svg viewBox="0 0 395.52 135.25166191021162" height="135.25166191021162" width="395.52" id="textblock"><g><svg viewBox="0 0 395.52 89.47752080300646" height="89.47752080300646" width="395.52"><rect width="395.52" height="89.47752080300646" x="0" y="0" opacity="1" fill="#755bb4" data-fill-palette-color="tertiary"></rect><g transform="matrix(1,0,0,1,23.461705032,23.461705032000005)"><svg width="348.596589936" viewBox="2.5 -33.1 271.13 33.1" height="42.55411073900645" data-palette-color="#ffffff"><path d="M11.6 0L10.1 0Q6.8 0 5.18-0.98 3.55-1.95 3.03-3.63 2.5-5.3 2.5-7.45L2.5-7.45 2.5-15Q2.5-16.9 3.03-18.57 3.55-20.25 5.18-21.33 6.8-22.4 10.1-22.4L10.1-22.4 11.65-22.4Q15.3-22.4 18.28-22.2 21.25-22 22.35-21.85L22.35-21.85 22.35-31.7 31.6-31.7 31.6 0 24.35 0 22.4-1Q20.3-0.65 17.88-0.33 15.45 0 11.6 0L11.6 0ZM14.15-6.3L14.15-6.3 20.8-6.3Q21.85-6.3 22.1-6.55 22.35-6.8 22.35-7.8L22.35-7.8 22.35-15.75Q21.1-15.85 19.4-15.98 17.7-16.1 15.65-16.1L15.65-16.1 14.15-16.1Q11.75-16.1 11.75-14.1L11.75-14.1 11.75-8.3Q11.75-7.3 12.3-6.8 12.85-6.3 14.15-6.3ZM46.85 0L37.6 0 37.6-22.4 44.85-22.4 46.1-21.8Q47.55-22.05 49.37-22.23 51.2-22.4 53.3-22.4L53.3-22.4 56-22.4Q57.45-22.4 58.8-22.03 60.15-21.65 60.8-20.95L60.8-20.95Q61.65-21.4 62.65-21.73 63.65-22.05 65.22-22.23 66.8-22.4 69.25-22.4L69.25-22.4 71.75-22.4Q74.25-22.4 75.6-21.7 76.95-21 77.52-19.95 78.1-18.9 78.22-17.82 78.35-16.75 78.35-16L78.35-16 78.35 0 69.2 0 69.2-14.1Q69.2-16.1 66.8-16.1L66.8-16.1 64-16.1Q63.2-16.1 62.9-15.9 62.6-15.7 62.6-15L62.6-15 62.6 0 53.3 0 53.3-14.1Q53.3-16.1 50.9-16.1L50.9-16.1 48.35-16.1Q47.4-16.1 47.12-15.93 46.85-15.75 46.85-15L46.85-15 46.85 0ZM93.05 0L91.55 0Q87.14 0 85.25-1.65 83.34-3.3 83.34-7.15L83.34-7.15Q83.34-10.7 85.32-12.3 87.3-13.9 91.55-13.9L91.55-13.9 93.09-13.9Q95.89-13.9 98.44-13.7 101-13.5 102.84-13.3L102.84-13.3 102.84-14.1Q102.84-14.8 102.55-15.45 102.25-16.1 100.44-16.1L100.44-16.1 97.94-16.1Q92.5-16.1 89.55-15.93 86.59-15.75 85.89-15.6L85.89-15.6 85.34-20.9Q85.34-21.4 87.09-21.73 88.84-22.05 91.89-22.23 94.94-22.4 98.84-22.4L98.84-22.4 103.84-22.4Q107.14-22.4 108.89-21.43 110.64-20.45 111.3-18.8 111.94-17.15 111.94-15L111.94-15 111.94 0 104.84 0 102.89-1Q101.69-0.75 99.07-0.38 96.44 0 93.05 0L93.05 0ZM94.44-5.9L94.44-5.9 101.34-5.9Q102.44-5.9 102.64-6.1 102.84-6.3 102.84-7.35L102.84-7.35 102.84-9.1 94.44-9.1Q93.5-9.1 93.05-8.75 92.59-8.4 92.59-7.4L92.59-7.4Q92.59-6.45 93.05-6.18 93.5-5.9 94.44-5.9ZM124.79 0L117.69 0 117.69-31.7 126.79-31.7 126.79-21.8Q128.94-22.05 131.87-22.23 134.79-22.4 138.54-22.4L138.54-22.4 139.04-22.4Q142.29-22.4 143.94-21.43 145.59-20.45 146.14-18.78 146.69-17.1 146.69-15L146.69-15 146.69-7.45Q146.69-5.6 146.07-3.88 145.44-2.15 143.79-1.07 142.14 0 139.04 0L139.04 0 138.54 0Q134.39 0 131.29-0.23 128.19-0.45 126.14-0.7L126.14-0.7 124.79 0ZM128.34-6.35L128.34-6.35 135.04-6.35Q137.44-6.35 137.44-8.35L137.44-8.35 137.44-14.1Q137.49-15.2 136.99-15.65 136.49-16.1 135.04-16.1L135.04-16.1 134.54-16.1Q131.94-16.1 129.84-15.95 127.74-15.8 126.79-15.7L126.79-15.7 126.79-7.9Q126.79-6.85 127.02-6.6 127.24-6.35 128.34-6.35ZM170.49 0L159.84 0Q156.54 0 154.76-0.95 152.99-1.9 152.34-3.58 151.69-5.25 151.69-7.45L151.69-7.45 151.69-15Q151.69-17 152.37-18.68 153.04-20.35 154.79-21.38 156.54-22.4 159.84-22.4L159.84-22.4 170.19-22.4Q174.09-22.4 176.16-21.48 178.24-20.55 179.01-18.88 179.79-17.2 179.79-15L179.79-15 179.79-8.6 171.04-8.6Q166.54-8.6 164.22-8.8 161.89-9 160.94-9.05L160.94-9.05 160.94-8.3Q160.89-6.3 163.34-6.3L163.34-6.3 164.89-6.3Q168.89-6.3 172.29-6.48 175.69-6.65 177.34-6.8L177.34-6.8 180.34-2.05Q180.34-1.55 179.49-1.1 178.64-0.65 176.51-0.33 174.39 0 170.49 0L170.49 0ZM160.94-14.1L160.94-13.4 170.54-13.4 170.54-14.1Q170.54-15.1 170.37-15.5 170.19-15.9 169.29-16 168.39-16.1 166.24-16.1L166.24-16.1 163.34-16.1Q160.94-16.1 160.94-14.1L160.94-14.1ZM194.44 0L185.34 0 185.34-22.4 192.44-22.4 194.34-21.4Q196.64-22.9 200.44-22.9L200.44-22.9Q202.94-22.9 204.84-22.38 206.74-21.85 207.91-21.25 209.09-20.65 209.39-20.4L209.39-20.4 206.89-13.9Q206.39-14.25 205.01-14.85 203.64-15.45 201.79-15.98 199.94-16.5 197.89-16.5L197.89-16.5 197.34-16.5Q195.94-16.5 195.19-16.03 194.44-15.55 194.44-13.95L194.44-13.95 194.44 0ZM222.49 0L213.39 0 213.39-27.7 212.89-31.7 222.49-31.7 222.49 0ZM233.53-24.55L233.53-24.55Q228.48-24.55 228.48-28.85L228.48-28.85Q228.48-31.25 229.76-32.18 231.03-33.1 233.53-33.1L233.53-33.1Q236.18-33.1 237.41-32.18 238.63-31.25 238.63-28.85L238.63-28.85Q238.63-24.55 233.53-24.55ZM238.03 0L228.93 0 228.93-22.4 238.03-22.4 238.03 0ZM253.88 0L244.63 0 244.63-22.4 251.88-22.4 253.88-21.4Q255.98-21.8 258.96-22.1 261.93-22.4 264.53-22.4L264.53-22.4 267.03-22.4Q269.53-22.4 270.88-21.7 272.23-21 272.81-19.95 273.38-18.9 273.5-17.82 273.63-16.75 273.63-16L273.63-16 273.63 0 264.48 0 264.48-14.1Q264.48-16.1 262.08-16.1L262.08-16.1 255.38-16.1Q254.43-16.1 254.16-15.93 253.88-15.75 253.88-15L253.88-15 253.88 0Z" opacity="1" transform="matrix(1,0,0,1,0,0)" fill="#ffffff" class="undefined-text-0" data-fill-palette-color="quaternary" id="text-0"></path></svg></g></svg></g><g transform="matrix(1,0,0,1,0,101.20837331900645)"><svg viewBox="0 0 395.52 34.04328859120516" height="34.04328859120516" width="395.52"><g transform="matrix(1,0,0,1,0,0)"><svg width="395.52" viewBox="3.5 -38.15 586.14 50.45" height="34.04328859120516" data-palette-color="#755bb4"><path d="M8.5 0L3.5 0 3.5-38.15 8.5-38.15 8.5-23.85Q10.25-25.15 12.75-26.18 15.25-27.2 17.9-27.2L17.9-27.2Q20.8-27.2 22.63-26 24.45-24.8 25.3-22.73 26.15-20.65 26.15-18.05L26.15-18.05 26.15 0 21.15 0 21.15-17.45Q21.15-19 20.53-20.18 19.9-21.35 18.78-22 17.65-22.65 16.1-22.65L16.1-22.65Q14.6-22.65 13.33-22.35 12.05-22.05 10.9-21.5 9.75-20.95 8.5-20.25L8.5-20.25 8.5 0ZM59.88 0.3L59.88 0.3Q56.93 0.3 55-1.48 53.08-3.25 53.08-6.4L53.08-6.4 53.08-8.5Q53.08-11.6 55.2-13.58 57.33-15.55 61.63-15.55L61.63-15.55 69.98-15.55 69.98-18.35Q69.98-19.9 69.45-20.98 68.93-22.05 67.53-22.6 66.13-23.15 63.38-23.15L63.38-23.15 55.18-23.15 55.18-26.1Q56.98-26.5 59.4-26.8 61.83-27.1 65.08-27.15L65.08-27.15Q68.38-27.15 70.6-26.33 72.83-25.5 73.93-23.63 75.03-21.75 75.03-18.65L75.03-18.65 75.03 0 71.08 0 70.23-2.95Q69.93-2.75 68.98-2.23 68.03-1.7 66.55-1.1 65.08-0.5 63.35-0.1 61.63 0.3 59.88 0.3ZM62.18-3.35L62.18-3.35Q62.93-3.3 63.95-3.5 64.98-3.7 66-3.98 67.03-4.25 67.9-4.55 68.78-4.85 69.35-5.08 69.93-5.3 69.98-5.35L69.98-5.35 69.98-13.05 62.98-12.75Q60.38-12.6 59.25-11.45 58.13-10.3 58.13-8.45L58.13-8.45 58.13-7.25Q58.13-5.8 58.73-4.93 59.33-4.05 60.25-3.7 61.18-3.35 62.18-3.35ZM108.36 11.85L103.36 11.85 103.36-26.75 107.46-26.75 108.36-24.05Q109.31-24.75 110.63-25.45 111.96-26.15 113.53-26.63 115.11-27.1 116.71-27.1L116.71-27.1Q119.26-27.1 121.08-26.05 122.91-25 124.06-23.13 125.21-21.25 125.73-18.75 126.26-16.25 126.26-13.4L126.26-13.4Q126.26-8.95 125.28-5.88 124.31-2.8 122.23-1.23 120.16 0.35 116.71 0.35L116.71 0.35Q114.61 0.35 112.41-0.28 110.21-0.9 108.36-1.95L108.36-1.95 108.36 11.85ZM115.21-3.85L115.21-3.85Q116.91-3.85 118.26-4.7 119.61-5.55 120.43-7.63 121.26-9.7 121.26-13.4L121.26-13.4Q121.26-16.9 120.41-19.03 119.56-21.15 118.21-22.08 116.86-23 115.26-23L115.26-23Q113.16-23 111.43-22.35 109.71-21.7 108.36-21L108.36-21 108.36-5.75Q109.91-4.9 111.68-4.38 113.46-3.85 115.21-3.85ZM158.88 11.85L153.88 11.85 153.88-26.75 157.98-26.75 158.88-24.05Q159.83-24.75 161.16-25.45 162.48-26.15 164.06-26.63 165.63-27.1 167.23-27.1L167.23-27.1Q169.78-27.1 171.61-26.05 173.43-25 174.58-23.13 175.73-21.25 176.26-18.75 176.78-16.25 176.78-13.4L176.78-13.4Q176.78-8.95 175.81-5.88 174.83-2.8 172.76-1.23 170.68 0.35 167.23 0.35L167.23 0.35Q165.13 0.35 162.93-0.28 160.73-0.9 158.88-1.95L158.88-1.95 158.88 11.85ZM165.73-3.85L165.73-3.85Q167.43-3.85 168.78-4.7 170.13-5.55 170.96-7.63 171.78-9.7 171.78-13.4L171.78-13.4Q171.78-16.9 170.93-19.03 170.08-21.15 168.73-22.08 167.38-23 165.78-23L165.78-23Q163.68-23 161.96-22.35 160.23-21.7 158.88-21L158.88-21 158.88-5.75Q160.43-4.9 162.21-4.38 163.98-3.85 165.73-3.85ZM214.96 11.85L210.96 11.85 214.21 0Q212.61-0.05 211.16-0.68 209.71-1.3 208.59-2.73 207.46-4.15 206.76-6.55L206.76-6.55 200.76-26.75 206.01-26.75 211.41-7.6Q211.86-6.25 212.44-5.55 213.01-4.85 213.59-4.58 214.16-4.3 214.61-4.25 215.06-4.2 215.16-4.2L215.16-4.2 221.41-26.75 226.56-26.75 217.36 6.9 214.96 11.85ZM292.27 0L287.27 0 287.27-38.15 292.27-38.15 292.27-23.85Q294.02-25.15 296.52-26.18 299.02-27.2 301.67-27.2L301.67-27.2Q304.57-27.2 306.39-26 308.22-24.8 309.07-22.73 309.92-20.65 309.92-18.05L309.92-18.05 309.92 0 304.92 0 304.92-17.45Q304.92-19 304.29-20.18 303.67-21.35 302.54-22 301.42-22.65 299.87-22.65L299.87-22.65Q298.37-22.65 297.09-22.35 295.82-22.05 294.67-21.5 293.52-20.95 292.27-20.25L292.27-20.25 292.27 0ZM343.65 0.3L343.65 0.3Q340.7 0.3 338.77-1.48 336.85-3.25 336.85-6.4L336.85-6.4 336.85-8.5Q336.85-11.6 338.97-13.58 341.1-15.55 345.4-15.55L345.4-15.55 353.75-15.55 353.75-18.35Q353.75-19.9 353.22-20.98 352.7-22.05 351.3-22.6 349.9-23.15 347.15-23.15L347.15-23.15 338.95-23.15 338.95-26.1Q340.75-26.5 343.17-26.8 345.6-27.1 348.85-27.15L348.85-27.15Q352.15-27.15 354.37-26.33 356.6-25.5 357.7-23.63 358.8-21.75 358.8-18.65L358.8-18.65 358.8 0 354.85 0 354-2.95Q353.7-2.75 352.75-2.23 351.8-1.7 350.32-1.1 348.85-0.5 347.12-0.1 345.4 0.3 343.65 0.3ZM345.95-3.35L345.95-3.35Q346.7-3.3 347.72-3.5 348.75-3.7 349.77-3.98 350.8-4.25 351.67-4.55 352.55-4.85 353.12-5.08 353.7-5.3 353.75-5.35L353.75-5.35 353.75-13.05 346.75-12.75Q344.15-12.6 343.02-11.45 341.9-10.3 341.9-8.45L341.9-8.45 341.9-7.25Q341.9-5.8 342.5-4.93 343.1-4.05 344.02-3.7 344.95-3.35 345.95-3.35ZM397.07 0.3L397.07 0.3Q394.72 0.3 392.75-0.33 390.77-0.95 389.3-2.45 387.82-3.95 387.02-6.6 386.22-9.25 386.22-13.3L386.22-13.3Q386.22-17.45 386.97-20.13 387.72-22.8 389.15-24.33 390.57-25.85 392.62-26.45 394.67-27.05 397.22-27.05L397.22-27.05Q399.32-27.05 401.65-26.85 403.97-26.65 406.17-26.2L406.17-26.2 406.17-23.25 398.62-23.25Q396.17-23.25 394.52-22.48 392.87-21.7 392.07-19.53 391.27-17.35 391.27-13.25L391.27-13.25Q391.27-9.3 392.12-7.18 392.97-5.05 394.6-4.3 396.22-3.55 398.67-3.55L398.67-3.55 406.57-3.55 406.57-0.7Q405.42-0.4 403.85-0.18 402.27 0.05 400.55 0.18 398.82 0.3 397.07 0.3ZM438.15 0L433.15 0 433.15-38.15 438.15-38.15 438.15-16.5 441.8-16.5 449.25-26.75 454.45-26.75 445.5-14.25 455.1 0 449.85 0 441.65-12 438.15-12 438.15 0ZM485.13-31.25L481.43-31.25Q480.53-31.25 480.53-32.1L480.53-32.1 480.53-36.3Q480.53-37.2 481.43-37.2L481.43-37.2 485.13-37.2Q485.53-37.2 485.73-36.95 485.93-36.7 485.93-36.3L485.93-36.3 485.93-32.1Q485.93-31.25 485.13-31.25L485.13-31.25ZM485.73 0L480.73 0 480.73-26.75 485.73-26.75 485.73 0ZM519.26 0L514.26 0 514.26-26.75 518.26-26.75 519.26-23.85Q521.06-25.15 523.53-26.18 526.01-27.2 528.66-27.2L528.66-27.2Q531.66-27.2 533.48-25.93 535.31-24.65 536.11-22.55 536.91-20.45 536.91-18L536.91-18 536.91 0 531.91 0 531.91-17.4Q531.91-19 531.28-20.18 530.66-21.35 529.56-22 528.46-22.65 526.86-22.65L526.86-22.65Q525.36-22.65 524.08-22.35 522.81-22.05 521.66-21.53 520.51-21 519.26-20.25L519.26-20.25 519.26 0ZM579.59 12.3L571.94 12.3Q569.39 12.3 567.41 11.58 565.44 10.85 564.29 9.38 563.14 7.9 563.14 5.75L563.14 5.75 563.14 4.65Q563.14 2.4 564.41 0.88 565.69-0.65 567.64-1.45 569.59-2.25 571.69-2.25L571.69-2.25 573.04-0.4Q571.69-0.4 570.51 0.03 569.34 0.45 568.61 1.38 567.89 2.3 567.89 3.75L567.89 3.75 567.89 4.7Q567.89 6.8 569.31 7.75 570.74 8.7 573.24 8.7L573.24 8.7 579.09 8.7Q581.74 8.7 583.29 7.68 584.84 6.65 584.84 4.5L584.84 4.5 584.84 3.55Q584.84 2.35 584.31 1.45 583.79 0.55 582.64 0.08 581.49-0.4 579.49-0.4L579.49-0.4 572.09-0.4Q568.54-0.4 566.69-1.85 564.84-3.3 564.84-5.5L564.84-5.5Q564.84-7.5 566.01-8.72 567.19-9.95 569.34-10.4L569.34-10.4Q567.54-11.2 566.51-12.45 565.49-13.7 565.09-15.18 564.69-16.65 564.69-18.15L564.69-18.15Q564.69-21.2 565.94-23.1 567.19-25 569.56-25.9 571.94-26.8 575.24-26.8L575.24-26.8 589.64-26.8 589.64-23.95 584.19-23.4Q584.79-22.95 585.49-22.23 586.19-21.5 586.69-20.25 587.19-19 587.19-16.95L587.19-16.95Q587.19-14.8 586.26-12.95 585.34-11.1 583.26-9.95 581.19-8.8 577.64-8.8L577.64-8.8 573.24-8.8Q571.34-8.8 570.24-8.25 569.14-7.7 569.14-6.3L569.14-6.3Q569.14-5.15 569.99-4.7 570.84-4.25 571.79-4.25L571.79-4.25 580.24-4.25Q583.29-4.25 585.36-3.45 587.44-2.65 588.49-1 589.54 0.65 589.54 3.3L589.54 3.3 589.54 4.25Q589.54 8.05 587.06 10.18 584.59 12.3 579.59 12.3L579.59 12.3ZM574.14-12.65L574.14-12.65 577.09-12.65Q579.34-12.65 580.51-13.33 581.69-14 582.14-15.1 582.59-16.2 582.59-17.55L582.59-17.55Q582.59-19.55 581.94-20.73 581.29-21.9 580.16-22.43 579.04-22.95 577.44-22.95L577.44-22.95 574.64-22.95Q572.09-22.95 570.66-21.8 569.24-20.65 569.24-17.85L569.24-17.85Q569.24-15.1 570.54-13.88 571.84-12.65 574.14-12.65Z" opacity="1" transform="matrix(1,0,0,1,0,0)" fill="#755bb4" class="undefined-text-1" data-fill-palette-color="secondary" id="text-1"></path></svg></g></svg></g></svg></g></svg></g></svg></g><defs></defs></svg><rect width="395.52" height="135.25166191021162" fill="none" stroke="none" visibility="hidden"></rect></g></svg></g></svg>